<?xml version="1.0" encoding="UTF-8"?><svg xmlns="http://www.w3.org/2000/svg" xmlns:xlink="http://www.w3.org/1999/xlink" fill-opacity="1" color-rendering="auto" color-interpolation="auto" text-rendering="auto" stroke="black" stroke-linecap="square" width="1030" stroke-miterlimit="10" shape-rendering="auto" stroke-opacity="1" fill="black" stroke-dasharray="none" font-weight="normal" stroke-width="1" height="772" font-family="'Dialog'" font-style="normal" stroke-linejoin="miter" font-size="12px" stroke-dashoffset="0" image-rendering="auto">
  <!--Generated by ySVG 2.6-->
  <defs id="genericDefs"/>
  <g>
    <defs id="defs1">
      <linearGradient x1="736.3862" gradientUnits="userSpaceOnUse" x2="866.3862" y1="750.2214" y2="775.2214" id="linearGradient1" spreadMethod="reflect">
        <stop stop-opacity="1" stop-color="rgb(232,238,247)" offset="0%"/>
        <stop stop-opacity="1" stop-color="rgb(183,201,227)" offset="100%"/>
      </linearGradient>
      <linearGradient x1="77.0029" gradientUnits="userSpaceOnUse" x2="207.0029" y1="580.4608" y2="605.4608" id="linearGradient2" spreadMethod="reflect">
        <stop stop-opacity="1" stop-color="rgb(232,238,247)" offset="0%"/>
        <stop stop-opacity="1" stop-color="rgb(183,201,227)" offset="100%"/>
      </linearGradient>
      <linearGradient x1="508.6628" gradientUnits="userSpaceOnUse" x2="638.6628" y1="580.4608" y2="605.4608" id="linearGradient3" spreadMethod="reflect">
        <stop stop-opacity="1" stop-color="rgb(232,238,247)" offset="0%"/>
        <stop stop-opacity="1" stop-color="rgb(183,201,227)" offset="100%"/>
      </linearGradient>
      <linearGradient x1="318" gradientUnits="userSpaceOnUse" x2="398" y1="450.5327" y2="490.5327" id="linearGradient4" spreadMethod="reflect">
        <stop stop-opacity="1" stop-color="rgb(232,238,247)" offset="0%"/>
        <stop stop-opacity="1" stop-color="rgb(183,201,227)" offset="100%"/>
      </linearGradient>
      <linearGradient x1="318" gradientUnits="userSpaceOnUse" x2="398" y1="520.5327" y2="560.5327" id="linearGradient5" spreadMethod="reflect">
        <stop stop-opacity="1" stop-color="rgb(232,238,247)" offset="0%"/>
        <stop stop-opacity="1" stop-color="rgb(183,201,227)" offset="100%"/>
      </linearGradient>
      <linearGradient x1="102.0029" gradientUnits="userSpaceOnUse" x2="182.0029" y1="635.4608" y2="675.4608" id="linearGradient6" spreadMethod="reflect">
        <stop stop-opacity="1" stop-color="rgb(232,238,247)" offset="0%"/>
        <stop stop-opacity="1" stop-color="rgb(183,201,227)" offset="100%"/>
      </linearGradient>
      <linearGradient x1="163" gradientUnits="userSpaceOnUse" x2="293" y1="750.2214" y2="775.2214" id="linearGradient7" spreadMethod="reflect">
        <stop stop-opacity="1" stop-color="rgb(232,238,247)" offset="0%"/>
        <stop stop-opacity="1" stop-color="rgb(183,201,227)" offset="100%"/>
      </linearGradient>
      <linearGradient x1="593.6628" gradientUnits="userSpaceOnUse" x2="723.6628" y1="750.2214" y2="775.2214" id="linearGradient8" spreadMethod="reflect">
        <stop stop-opacity="1" stop-color="rgb(232,238,247)" offset="0%"/>
        <stop stop-opacity="1" stop-color="rgb(183,201,227)" offset="100%"/>
      </linearGradient>
      <linearGradient x1="533.6628" gradientUnits="userSpaceOnUse" x2="613.6628" y1="635.4608" y2="675.4608" id="linearGradient9" spreadMethod="reflect">
        <stop stop-opacity="1" stop-color="rgb(232,238,247)" offset="0%"/>
        <stop stop-opacity="1" stop-color="rgb(183,201,227)" offset="100%"/>
      </linearGradient>
      <linearGradient x1="163" gradientUnits="userSpaceOnUse" x2="293" y1="835.6832" y2="860.6832" id="linearGradient10" spreadMethod="reflect">
        <stop stop-opacity="1" stop-color="rgb(232,238,247)" offset="0%"/>
        <stop stop-opacity="1" stop-color="rgb(183,201,227)" offset="100%"/>
      </linearGradient>
      <linearGradient x1="293" gradientUnits="userSpaceOnUse" x2="423" y1="898.1832" y2="923.1832" id="linearGradient11" spreadMethod="reflect">
        <stop stop-opacity="1" stop-color="rgb(232,238,247)" offset="0%"/>
        <stop stop-opacity="1" stop-color="rgb(183,201,227)" offset="100%"/>
      </linearGradient>
      <linearGradient x1="423.6628" gradientUnits="userSpaceOnUse" x2="553.6628" y1="835.6832" y2="860.6832" id="linearGradient12" spreadMethod="reflect">
        <stop stop-opacity="1" stop-color="rgb(232,238,247)" offset="0%"/>
        <stop stop-opacity="1" stop-color="rgb(183,201,227)" offset="100%"/>
      </linearGradient>
      <linearGradient x1="-87.6628" gradientUnits="userSpaceOnUse" x2="42.3372" y1="1136.8419" y2="1161.8419" id="linearGradient13" spreadMethod="reflect">
        <stop stop-opacity="1" stop-color="rgb(232,238,247)" offset="0%"/>
        <stop stop-opacity="1" stop-color="rgb(183,201,227)" offset="100%"/>
      </linearGradient>
      <linearGradient x1="71.6686" gradientUnits="userSpaceOnUse" x2="201.6686" y1="1136.8419" y2="1161.8419" id="linearGradient14" spreadMethod="reflect">
        <stop stop-opacity="1" stop-color="rgb(232,238,247)" offset="0%"/>
        <stop stop-opacity="1" stop-color="rgb(183,201,227)" offset="100%"/>
      </linearGradient>
      <linearGradient x1="-7.9971" gradientUnits="userSpaceOnUse" x2="122.0029" y1="1019.6494" y2="1044.6493" id="linearGradient15" spreadMethod="reflect">
        <stop stop-opacity="1" stop-color="rgb(232,238,247)" offset="0%"/>
        <stop stop-opacity="1" stop-color="rgb(183,201,227)" offset="100%"/>
      </linearGradient>
      <linearGradient x1="77.0029" gradientUnits="userSpaceOnUse" x2="207.0029" y1="973.8419" y2="998.8419" id="linearGradient16" spreadMethod="reflect">
        <stop stop-opacity="1" stop-color="rgb(232,238,247)" offset="0%"/>
        <stop stop-opacity="1" stop-color="rgb(183,201,227)" offset="100%"/>
      </linearGradient>
      <linearGradient x1="508.6628" gradientUnits="userSpaceOnUse" x2="638.6628" y1="1136.8419" y2="1161.8419" id="linearGradient17" spreadMethod="reflect">
        <stop stop-opacity="1" stop-color="rgb(232,238,247)" offset="0%"/>
        <stop stop-opacity="1" stop-color="rgb(183,201,227)" offset="100%"/>
      </linearGradient>
      <linearGradient x1="643.6628" gradientUnits="userSpaceOnUse" x2="773.6628" y1="1082.1493" y2="1107.1493" id="linearGradient18" spreadMethod="reflect">
        <stop stop-opacity="1" stop-color="rgb(232,238,247)" offset="0%"/>
        <stop stop-opacity="1" stop-color="rgb(183,201,227)" offset="100%"/>
      </linearGradient>
      <linearGradient x1="373.6628" gradientUnits="userSpaceOnUse" x2="503.6628" y1="1082.1493" y2="1107.1493" id="linearGradient19" spreadMethod="reflect">
        <stop stop-opacity="1" stop-color="rgb(232,238,247)" offset="0%"/>
        <stop stop-opacity="1" stop-color="rgb(183,201,227)" offset="100%"/>
      </linearGradient>
      <linearGradient x1="17.0029" gradientUnits="userSpaceOnUse" x2="97.0029" y1="1074.6493" y2="1114.6493" id="linearGradient20" spreadMethod="reflect">
        <stop stop-opacity="1" stop-color="rgb(232,238,247)" offset="0%"/>
        <stop stop-opacity="1" stop-color="rgb(183,201,227)" offset="100%"/>
      </linearGradient>
      <linearGradient x1="533.6628" gradientUnits="userSpaceOnUse" x2="613.6628" y1="1074.6493" y2="1114.6493" id="linearGradient21" spreadMethod="reflect">
        <stop stop-opacity="1" stop-color="rgb(232,238,247)" offset="0%"/>
        <stop stop-opacity="1" stop-color="rgb(183,201,227)" offset="100%"/>
      </linearGradient>
      <linearGradient x1="318" gradientUnits="userSpaceOnUse" x2="398" y1="828.1832" y2="868.1832" id="linearGradient22" spreadMethod="reflect">
        <stop stop-opacity="1" stop-color="rgb(232,238,247)" offset="0%"/>
        <stop stop-opacity="1" stop-color="rgb(183,201,227)" offset="100%"/>
      </linearGradient>
      <linearGradient x1="690.0245" gradientUnits="userSpaceOnUse" x2="770.0245" y1="688.569" y2="728.569" id="linearGradient23" spreadMethod="reflect">
        <stop stop-opacity="1" stop-color="rgb(232,238,247)" offset="0%"/>
        <stop stop-opacity="1" stop-color="rgb(183,201,227)" offset="100%"/>
      </linearGradient>
      <clipPath clipPathUnits="userSpaceOnUse" id="clipPath1">
        <path d="M0 0 L1030 0 L1030 772 L0 772 L0 0 Z"/>
      </clipPath>
      <clipPath clipPathUnits="userSpaceOnUse" id="clipPath2">
        <path d="M-133 435 L897 435 L897 1207 L-133 1207 L-133 435 Z"/>
      </clipPath>
    </defs>
    <g fill="white" text-rendering="geometricPrecision" shape-rendering="geometricPrecision" transform="translate(133,-435)" stroke="white">
      <rect x="-133" width="1030" height="772" y="435" clip-path="url(#clipPath2)" stroke="none"/>
    </g>
    <g id="y.node.0">
      <a target="_blank" xlink:type="simple" xlink:href="https://en.cppreference.com/w/cpp/types/is_reference" xlink:show="new">
        <g fill="url(#linearGradient1)" text-rendering="geometricPrecision" shape-rendering="geometricPrecision" transform="matrix(1,0,0,1,133,-435)" stroke="url(#linearGradient1)">
          <path d="M736.3862 750.2214 L866.3862 750.2214 L866.3862 775.2214 L736.3862 775.2214 Z" stroke="none"/>
        </g>
        <g text-rendering="geometricPrecision" stroke-miterlimit="1.45" shape-rendering="geometricPrecision" transform="matrix(1,0,0,1,133,-435)" stroke-linecap="butt">
          <path fill="none" d="M736.3862 750.2214 L866.3862 750.2214 L866.3862 775.2214 L736.3862 775.2214 Z"/>
        </g>
        <g>
          <g text-rendering="geometricPrecision" stroke-miterlimit="1.45" shape-rendering="geometricPrecision" font-family="sans-serif" transform="matrix(1,0,0,1,133,-435)" stroke-linecap="butt">
            <text x="764.6802" xml:space="preserve" y="766.8757" stroke="none">is_reference</text>
          </g>
        </g>
      </a>
    </g>
    <g id="y.node.1">
      <a target="_blank" xlink:type="simple" xlink:href="https://en.cppreference.com/w/cpp/types/is_fundamental" xlink:show="new">
        <g fill="url(#linearGradient2)" text-rendering="geometricPrecision" shape-rendering="geometricPrecision" transform="matrix(1,0,0,1,133,-435)" stroke="url(#linearGradient2)">
          <path d="M77.0029 580.4608 L207.0029 580.4608 L207.0029 605.4608 L77.0029 605.4608 Z" stroke="none"/>
        </g>
        <g text-rendering="geometricPrecision" stroke-miterlimit="1.45" shape-rendering="geometricPrecision" transform="matrix(1,0,0,1,133,-435)" stroke-linecap="butt">
          <path fill="none" d="M77.0029 580.4608 L207.0029 580.4608 L207.0029 605.4608 L77.0029 605.4608 Z"/>
        </g>
        <g>
          <g text-rendering="geometricPrecision" stroke-miterlimit="1.45" shape-rendering="geometricPrecision" font-family="sans-serif" transform="matrix(1,0,0,1,133,-435)" stroke-linecap="butt">
            <text x="95.9716" xml:space="preserve" y="597.1151" stroke="none">is_fundamental</text>
          </g>
        </g>
      </a>
    </g>
    <g id="y.node.2">
      <a target="_blank" xlink:type="simple" xlink:href="https://en.cppreference.com/w/cpp/types/is_compound" xlink:show="new">
        <g fill="url(#linearGradient3)" text-rendering="geometricPrecision" shape-rendering="geometricPrecision" transform="matrix(1,0,0,1,133,-435)" stroke="url(#linearGradient3)">
          <path d="M508.6628 580.4608 L638.6628 580.4608 L638.6628 605.4608 L508.6628 605.4608 Z" stroke="none"/>
        </g>
        <g text-rendering="geometricPrecision" stroke-miterlimit="1.45" shape-rendering="geometricPrecision" transform="matrix(1,0,0,1,133,-435)" stroke-linecap="butt">
          <path fill="none" d="M508.6628 580.4608 L638.6628 580.4608 L638.6628 605.4608 L508.6628 605.4608 Z"/>
        </g>
        <g>
          <g text-rendering="geometricPrecision" stroke-miterlimit="1.45" shape-rendering="geometricPrecision" font-family="sans-serif" transform="matrix(1,0,0,1,133,-435)" stroke-linecap="butt">
            <text x="534.1619" xml:space="preserve" y="597.1151" stroke="none">is_compound</text>
          </g>
        </g>
      </a>
    </g>
    <g id="y.node.3">
      <g fill="url(#linearGradient4)" text-rendering="geometricPrecision" shape-rendering="geometricPrecision" transform="matrix(1,0,0,1,133,-435)" stroke="url(#linearGradient4)">
        <circle r="20" cx="358" cy="470.5327" stroke="none"/>
      </g>
      <g text-rendering="geometricPrecision" stroke-miterlimit="1.45" shape-rendering="geometricPrecision" transform="matrix(1,0,0,1,133,-435)" stroke-linecap="butt">
        <circle fill="none" r="20" cx="358" cy="470.5327"/>
      </g>
      <g/>
    </g>
    <g id="y.node.4">
      <g fill="url(#linearGradient5)" text-rendering="geometricPrecision" shape-rendering="geometricPrecision" transform="matrix(1,0,0,1,133,-435)" stroke="url(#linearGradient5)">
        <path d="M358 520.5327 L398 540.5327 L358 560.5327 L318 540.5327 Z" stroke="none"/>
      </g>
      <g text-rendering="geometricPrecision" stroke-miterlimit="1.45" shape-rendering="geometricPrecision" transform="matrix(1,0,0,1,133,-435)" stroke-linecap="butt">
        <path fill="none" d="M358 520.5327 L398 540.5327 L358 560.5327 L318 540.5327 Z"/>
      </g>
      <g/>
    </g>
    <g id="y.node.5">
      <g fill="url(#linearGradient6)" text-rendering="geometricPrecision" shape-rendering="geometricPrecision" transform="matrix(1,0,0,1,133,-435)" stroke="url(#linearGradient6)">
        <path d="M142.0029 635.4608 L182.0029 655.4608 L142.0029 675.4608 L102.0029 655.4608 Z" stroke="none"/>
      </g>
      <g text-rendering="geometricPrecision" stroke-miterlimit="1.45" shape-rendering="geometricPrecision" transform="matrix(1,0,0,1,133,-435)" stroke-linecap="butt">
        <path fill="none" d="M142.0029 635.4608 L182.0029 655.4608 L142.0029 675.4608 L102.0029 655.4608 Z"/>
      </g>
      <g/>
    </g>
    <g id="y.node.6">
      <a target="_blank" xlink:type="simple" xlink:href="https://en.cppreference.com/w/cpp/types/is_void" xlink:show="new">
        <g fill="url(#linearGradient7)" text-rendering="geometricPrecision" shape-rendering="geometricPrecision" transform="matrix(1,0,0,1,133,-435)" stroke="url(#linearGradient7)">
          <path d="M163 750.2214 L293 750.2214 L293 775.2214 L163 775.2214 Z" stroke="none"/>
        </g>
        <g text-rendering="geometricPrecision" stroke-miterlimit="1.45" shape-rendering="geometricPrecision" transform="matrix(1,0,0,1,133,-435)" stroke-linecap="butt">
          <path fill="none" d="M163 750.2214 L293 750.2214 L293 775.2214 L163 775.2214 Z"/>
        </g>
        <g>
          <g text-rendering="geometricPrecision" stroke-miterlimit="1.45" shape-rendering="geometricPrecision" font-family="sans-serif" transform="matrix(1,0,0,1,133,-435)" stroke-linecap="butt">
            <text x="207.5098" xml:space="preserve" y="766.8757" stroke="none">is_void</text>
          </g>
        </g>
      </a>
    </g>
    <g id="y.node.7">
      <a target="_blank" xlink:type="simple" xlink:href="https://en.cppreference.com/w/cpp/types/is_function" xlink:show="new">
        <g fill="url(#linearGradient8)" text-rendering="geometricPrecision" shape-rendering="geometricPrecision" transform="matrix(1,0,0,1,133,-435)" stroke="url(#linearGradient8)">
          <path d="M593.6628 750.2214 L723.6628 750.2214 L723.6628 775.2214 L593.6628 775.2214 Z" stroke="none"/>
        </g>
        <g text-rendering="geometricPrecision" stroke-miterlimit="1.45" shape-rendering="geometricPrecision" transform="matrix(1,0,0,1,133,-435)" stroke-linecap="butt">
          <path fill="none" d="M593.6628 750.2214 L723.6628 750.2214 L723.6628 775.2214 L593.6628 775.2214 Z"/>
        </g>
        <g>
          <g text-rendering="geometricPrecision" stroke-miterlimit="1.45" shape-rendering="geometricPrecision" font-family="sans-serif" transform="matrix(1,0,0,1,133,-435)" stroke-linecap="butt">
            <text x="626.3601" xml:space="preserve" y="766.8757" stroke="none">is_function</text>
          </g>
        </g>
      </a>
    </g>
    <g id="y.node.8">
      <g fill="url(#linearGradient9)" text-rendering="geometricPrecision" shape-rendering="geometricPrecision" transform="matrix(1,0,0,1,133,-435)" stroke="url(#linearGradient9)">
        <path d="M573.6628 635.4608 L613.6628 655.4608 L573.6628 675.4608 L533.6628 655.4608 Z" stroke="none"/>
      </g>
      <g text-rendering="geometricPrecision" stroke-miterlimit="1.45" shape-rendering="geometricPrecision" transform="matrix(1,0,0,1,133,-435)" stroke-linecap="butt">
        <path fill="none" d="M573.6628 635.4608 L613.6628 655.4608 L573.6628 675.4608 L533.6628 655.4608 Z"/>
      </g>
      <g/>
    </g>
    <g id="y.edge.0">
      <g text-rendering="geometricPrecision" stroke-miterlimit="1.45" shape-rendering="geometricPrecision" transform="matrix(1,0,0,1,133,-435)" stroke-linecap="butt">
        <path fill="none" d="M358 490.5278 L358 512.56"/>
      </g>
      <g text-rendering="geometricPrecision" stroke-miterlimit="1.45" shape-rendering="geometricPrecision" transform="matrix(1,0,0,1,133,-435)" stroke-linecap="butt">
        <path d="M358 520.56 L363 508.56 L358 511.56 L353 508.56 Z" stroke="none"/>
      </g>
    </g>
    <g id="y.edge.1">
      <g text-rendering="geometricPrecision" stroke-miterlimit="1.45" shape-rendering="geometricPrecision" transform="matrix(1,0,0,1,133,-435)" stroke-linecap="butt">
        <path fill="none" d="M318.0015 540.5327 L142.0029 540.5327 L142.0029 572.4425"/>
        <path d="M142.0029 580.4425 L147.0029 568.4425 L142.0029 571.4425 L137.0029 568.4425 Z" stroke="none"/>
      </g>
    </g>
    <g id="y.edge.2">
      <g text-rendering="geometricPrecision" stroke-miterlimit="1.45" shape-rendering="geometricPrecision" transform="matrix(1,0,0,1,133,-435)" stroke-linecap="butt">
        <path fill="none" d="M397.9892 540.5327 L573.6628 540.5327 L573.6628 572.4425"/>
        <path d="M573.6628 580.4425 L578.6628 568.4425 L573.6628 571.4425 L568.6628 568.4425 Z" stroke="none"/>
      </g>
    </g>
    <g id="y.edge.3">
      <g text-rendering="geometricPrecision" stroke-miterlimit="1.45" shape-rendering="geometricPrecision" transform="matrix(1,0,0,1,133,-435)" stroke-linecap="butt">
        <path fill="none" d="M142.0029 605.4424 L142.0029 627.4827"/>
        <path d="M142.0029 635.4827 L147.0029 623.4827 L142.0029 626.4827 L137.0029 623.4827 Z" stroke="none"/>
      </g>
    </g>
    <g id="y.edge.5">
      <g text-rendering="geometricPrecision" stroke-miterlimit="1.45" shape-rendering="geometricPrecision" transform="matrix(1,0,0,1,133,-435)" stroke-linecap="butt">
        <path fill="none" d="M182.0201 655.4608 L228 655.4608 L228 742.2304"/>
        <path d="M228 750.2304 L233 738.2304 L228 741.2304 L223 738.2304 Z" stroke="none"/>
      </g>
    </g>
    <g id="y.edge.6">
      <g text-rendering="geometricPrecision" stroke-miterlimit="1.45" shape-rendering="geometricPrecision" transform="matrix(1,0,0,1,133,-435)" stroke-linecap="butt">
        <path fill="none" d="M573.6628 605.4424 L573.6628 627.4827"/>
        <path d="M573.6628 635.4827 L578.6628 623.4827 L573.6628 626.4827 L568.6628 623.4827 Z" stroke="none"/>
      </g>
    </g>
    <g id="y.node.9">
      <a target="_blank" xlink:type="simple" xlink:href="https://en.cppreference.com/w/cpp/types/is_object" xlink:show="new">
        <g fill="rgb(245,245,245)" text-rendering="geometricPrecision" shape-rendering="geometricPrecision" transform="matrix(1,0,0,1,133,-435)" stroke="rgb(245,245,245)">
          <rect x="-117.6628" y="782.4711" width="999.0491" rx="4" ry="4" height="409.3707" stroke="none"/>
        </g>
        <g>
          <g fill="rgb(235,235,235)" text-rendering="geometricPrecision" shape-rendering="geometricPrecision" transform="matrix(1,0,0,1,133,-435)" stroke="rgb(235,235,235)">
            <rect x="-117.6628" width="999.0491" height="21.4609" y="782.4711" stroke="none"/>
          </g>
          <g font-size="15px" stroke-linecap="butt" transform="matrix(1,0,0,1,133,-435)" text-rendering="geometricPrecision" font-family="sans-serif" shape-rendering="geometricPrecision" stroke-miterlimit="1.45">
            <text x="813.6807" xml:space="preserve" y="798.3945" stroke="none">is_object</text>
          </g>
        </g>
        <g text-rendering="geometricPrecision" stroke-miterlimit="1.45" stroke-dasharray="6,2" shape-rendering="geometricPrecision" transform="matrix(1,0,0,1,133,-435)" stroke-linecap="butt">
          <rect x="-117.6628" y="782.4711" fill="none" width="999.0491" rx="4" ry="4" height="409.3707"/>
        </g>
      </a>
    </g>
    <g id="y.node.10">
      <a target="_blank" xlink:type="simple" xlink:href="https://en.cppreference.com/w/cpp/types/is_array" xlink:show="new">
        <g fill="url(#linearGradient10)" text-rendering="geometricPrecision" shape-rendering="geometricPrecision" transform="matrix(1,0,0,1,133,-435)" stroke="url(#linearGradient10)">
          <path d="M163 835.6832 L293 835.6832 L293 860.6832 L163 860.6832 Z" stroke="none"/>
        </g>
        <g text-rendering="geometricPrecision" stroke-miterlimit="1.45" shape-rendering="geometricPrecision" transform="matrix(1,0,0,1,133,-435)" stroke-linecap="butt">
          <path fill="none" d="M163 835.6832 L293 835.6832 L293 860.6832 L163 860.6832 Z"/>
        </g>
        <g>
          <g text-rendering="geometricPrecision" stroke-miterlimit="1.45" shape-rendering="geometricPrecision" font-family="sans-serif" transform="matrix(1,0,0,1,133,-435)" stroke-linecap="butt">
            <text x="204.3691" xml:space="preserve" y="852.3375" stroke="none">is_array</text>
          </g>
        </g>
      </a>
    </g>
    <g id="y.node.11">
      <a target="_blank" xlink:type="simple" xlink:href="https://en.cppreference.com/w/cpp/types/is_class" xlink:show="new">
        <g fill="url(#linearGradient11)" text-rendering="geometricPrecision" shape-rendering="geometricPrecision" transform="matrix(1,0,0,1,133,-435)" stroke="url(#linearGradient11)">
          <path d="M293 898.1832 L423 898.1832 L423 923.1832 L293 923.1832 Z" stroke="none"/>
        </g>
        <g text-rendering="geometricPrecision" stroke-miterlimit="1.45" shape-rendering="geometricPrecision" transform="matrix(1,0,0,1,133,-435)" stroke-linecap="butt">
          <path fill="none" d="M293 898.1832 L423 898.1832 L423 923.1832 L293 923.1832 Z"/>
        </g>
        <g>
          <g text-rendering="geometricPrecision" stroke-miterlimit="1.45" shape-rendering="geometricPrecision" font-family="sans-serif" transform="matrix(1,0,0,1,133,-435)" stroke-linecap="butt">
            <text x="335.3125" xml:space="preserve" y="914.8375" stroke="none">is_class</text>
          </g>
        </g>
      </a>
    </g>
    <g id="y.node.12">
      <a target="_blank" xlink:type="simple" xlink:href="https://en.cppreference.com/w/cpp/types/is_union" xlink:show="new">
        <g fill="url(#linearGradient12)" text-rendering="geometricPrecision" shape-rendering="geometricPrecision" transform="matrix(1,0,0,1,133,-435)" stroke="url(#linearGradient12)">
          <path d="M423.6628 835.6832 L553.6628 835.6832 L553.6628 860.6832 L423.6628 860.6832 Z" stroke="none"/>
        </g>
        <g text-rendering="geometricPrecision" stroke-miterlimit="1.45" shape-rendering="geometricPrecision" transform="matrix(1,0,0,1,133,-435)" stroke-linecap="butt">
          <path fill="none" d="M423.6628 835.6832 L553.6628 835.6832 L553.6628 860.6832 L423.6628 860.6832 Z"/>
        </g>
        <g>
          <g text-rendering="geometricPrecision" stroke-miterlimit="1.45" shape-rendering="geometricPrecision" font-family="sans-serif" transform="matrix(1,0,0,1,133,-435)" stroke-linecap="butt">
            <text x="464.1238" xml:space="preserve" y="852.3375" stroke="none">is_union</text>
          </g>
        </g>
      </a>
    </g>
    <g id="y.node.13">
      <a target="_blank" xlink:type="simple" xlink:href="https://en.cppreference.com/w/cpp/types/is_scalar" xlink:show="new">
        <g fill="rgb(225,225,225)" text-rendering="geometricPrecision" shape-rendering="geometricPrecision" transform="matrix(1,0,0,1,133,-435)" stroke="rgb(225,225,225)">
          <rect x="-102.6628" y="937.3809" width="969.0491" rx="4" ry="4" height="239.4609" stroke="none"/>
        </g>
        <g>
          <g fill="rgb(235,235,235)" text-rendering="geometricPrecision" shape-rendering="geometricPrecision" transform="matrix(1,0,0,1,133,-435)" stroke="rgb(235,235,235)">
            <rect x="-102.6628" width="969.0491" height="21.4609" y="937.3809" stroke="none"/>
          </g>
          <g font-size="15px" stroke-linecap="butt" transform="matrix(1,0,0,1,133,-435)" text-rendering="geometricPrecision" font-family="sans-serif" shape-rendering="geometricPrecision" stroke-miterlimit="1.45">
            <text x="800.1235" xml:space="preserve" y="953.3043" stroke="none">is_scalar</text>
          </g>
        </g>
        <g text-rendering="geometricPrecision" stroke-miterlimit="1.45" stroke-dasharray="6,2" shape-rendering="geometricPrecision" transform="matrix(1,0,0,1,133,-435)" stroke-linecap="butt">
          <rect x="-102.6628" y="937.3809" fill="none" width="969.0491" rx="4" ry="4" height="239.4609"/>
        </g>
      </a>
    </g>
    <g id="y.node.14">
      <a target="_blank" xlink:type="simple" xlink:href="https://en.cppreference.com/w/cpp/types/is_integral" xlink:show="new">
        <g fill="url(#linearGradient13)" text-rendering="geometricPrecision" shape-rendering="geometricPrecision" transform="matrix(1,0,0,1,133,-435)" stroke="url(#linearGradient13)">
          <path d="M-87.6628 1136.8419 L42.3372 1136.8419 L42.3372 1161.8419 L-87.6628 1161.8419 Z" stroke="none"/>
        </g>
        <g text-rendering="geometricPrecision" stroke-miterlimit="1.45" shape-rendering="geometricPrecision" transform="matrix(1,0,0,1,133,-435)" stroke-linecap="butt">
          <path fill="none" d="M-87.6628 1136.8419 L42.3372 1136.8419 L42.3372 1161.8419 L-87.6628 1161.8419 Z"/>
        </g>
        <g>
          <g text-rendering="geometricPrecision" stroke-miterlimit="1.45" shape-rendering="geometricPrecision" font-family="sans-serif" transform="matrix(1,0,0,1,133,-435)" stroke-linecap="butt">
            <text x="-53.5886" xml:space="preserve" y="1153.4962" stroke="none">is_integral</text>
          </g>
        </g>
      </a>
    </g>
    <g id="y.node.15">
      <a target="_blank" xlink:type="simple" xlink:href="https://en.cppreference.com/w/cpp/types/is_floating_point" xlink:show="new">
        <g fill="url(#linearGradient14)" text-rendering="geometricPrecision" shape-rendering="geometricPrecision" transform="matrix(1,0,0,1,133,-435)" stroke="url(#linearGradient14)">
          <path d="M71.6686 1136.8419 L201.6686 1136.8419 L201.6686 1161.8419 L71.6686 1161.8419 Z" stroke="none"/>
        </g>
        <g text-rendering="geometricPrecision" stroke-miterlimit="1.45" shape-rendering="geometricPrecision" transform="matrix(1,0,0,1,133,-435)" stroke-linecap="butt">
          <path fill="none" d="M71.6686 1136.8419 L201.6686 1136.8419 L201.6686 1161.8419 L71.6686 1161.8419 Z"/>
        </g>
        <g>
          <g text-rendering="geometricPrecision" stroke-miterlimit="1.45" shape-rendering="geometricPrecision" font-family="sans-serif" transform="matrix(1,0,0,1,133,-435)" stroke-linecap="butt">
            <text x="87.816" xml:space="preserve" y="1153.4962" stroke="none">is_floating_point</text>
          </g>
        </g>
      </a>
    </g>
    <g id="y.node.16">
      <a target="_blank" xlink:type="simple" xlink:href="https://en.cppreference.com/w/cpp/types/is_arithmetic" xlink:show="new">
        <g fill="url(#linearGradient15)" text-rendering="geometricPrecision" shape-rendering="geometricPrecision" transform="matrix(1,0,0,1,133,-435)" stroke="url(#linearGradient15)">
          <path d="M-7.9971 1019.6494 L122.0029 1019.6494 L122.0029 1044.6493 L-7.9971 1044.6493 Z" stroke="none"/>
        </g>
        <g text-rendering="geometricPrecision" stroke-miterlimit="1.45" shape-rendering="geometricPrecision" transform="matrix(1,0,0,1,133,-435)" stroke-linecap="butt">
          <path fill="none" d="M-7.9971 1019.6494 L122.0029 1019.6494 L122.0029 1044.6493 L-7.9971 1044.6493 Z"/>
        </g>
        <g>
          <g text-rendering="geometricPrecision" stroke-miterlimit="1.45" shape-rendering="geometricPrecision" font-family="sans-serif" transform="matrix(1,0,0,1,133,-435)" stroke-linecap="butt">
            <text x="18.3896" xml:space="preserve" y="1036.3036" stroke="none">is_arithmetic</text>
          </g>
        </g>
      </a>
    </g>
    <g id="y.node.17">
      <a target="_blank" xlink:type="simple" xlink:href="https://en.cppreference.com/w/cpp/types/is_null_pointer" xlink:show="new">
        <g fill="url(#linearGradient16)" text-rendering="geometricPrecision" shape-rendering="geometricPrecision" transform="matrix(1,0,0,1,133,-435)" stroke="url(#linearGradient16)">
          <path d="M77.0029 973.8419 L207.0029 973.8419 L207.0029 998.8419 L77.0029 998.8419 Z" stroke="none"/>
        </g>
        <g text-rendering="geometricPrecision" stroke-miterlimit="1.45" shape-rendering="geometricPrecision" transform="matrix(1,0,0,1,133,-435)" stroke-linecap="butt">
          <path fill="none" d="M77.0029 973.8419 L207.0029 973.8419 L207.0029 998.8419 L77.0029 998.8419 Z"/>
        </g>
        <g>
          <g text-rendering="geometricPrecision" stroke-miterlimit="1.45" shape-rendering="geometricPrecision" font-family="sans-serif" transform="matrix(1,0,0,1,133,-435)" stroke-linecap="butt">
            <text x="98.8105" xml:space="preserve" y="990.4962" stroke="none">is_null_pointer</text>
          </g>
        </g>
      </a>
    </g>
    <g id="y.node.18">
      <a target="_blank" xlink:type="simple" xlink:href="https://en.cppreference.com/w/cpp/types/is_member_pointer" xlink:show="new">
        <g fill="url(#linearGradient17)" text-rendering="geometricPrecision" shape-rendering="geometricPrecision" transform="matrix(1,0,0,1,133,-435)" stroke="url(#linearGradient17)">
          <path d="M508.6628 1136.8419 L638.6628 1136.8419 L638.6628 1161.8419 L508.6628 1161.8419 Z" stroke="none"/>
        </g>
        <g text-rendering="geometricPrecision" stroke-miterlimit="1.45" shape-rendering="geometricPrecision" transform="matrix(1,0,0,1,133,-435)" stroke-linecap="butt">
          <path fill="none" d="M508.6628 1136.8419 L638.6628 1136.8419 L638.6628 1161.8419 L508.6628 1161.8419 Z"/>
        </g>
        <g>
          <g text-rendering="geometricPrecision" stroke-miterlimit="1.45" shape-rendering="geometricPrecision" font-family="sans-serif" transform="matrix(1,0,0,1,133,-435)" stroke-linecap="butt">
            <text x="516.0623" xml:space="preserve" y="1153.4962" stroke="none">is_member_pointer</text>
          </g>
        </g>
      </a>
    </g>
    <g id="y.node.19">
      <a target="_blank" xlink:type="simple" xlink:href="https://en.cppreference.com/w/cpp/types/is_pointer" xlink:show="new">
        <g fill="url(#linearGradient18)" text-rendering="geometricPrecision" shape-rendering="geometricPrecision" transform="matrix(1,0,0,1,133,-435)" stroke="url(#linearGradient18)">
          <path d="M643.6628 1082.1493 L773.6628 1082.1493 L773.6628 1107.1493 L643.6628 1107.1493 Z" stroke="none"/>
        </g>
        <g text-rendering="geometricPrecision" stroke-miterlimit="1.45" shape-rendering="geometricPrecision" transform="matrix(1,0,0,1,133,-435)" stroke-linecap="butt">
          <path fill="none" d="M643.6628 1082.1493 L773.6628 1082.1493 L773.6628 1107.1493 L643.6628 1107.1493 Z"/>
        </g>
        <g>
          <g text-rendering="geometricPrecision" stroke-miterlimit="1.45" shape-rendering="geometricPrecision" font-family="sans-serif" transform="matrix(1,0,0,1,133,-435)" stroke-linecap="butt">
            <text x="679.4099" xml:space="preserve" y="1098.8036" stroke="none">is_pointer</text>
          </g>
        </g>
      </a>
    </g>
    <g id="y.node.20">
      <a target="_blank" xlink:type="simple" xlink:href="https://en.cppreference.com/w/cpp/types/is_enum" xlink:show="new">
        <g fill="url(#linearGradient19)" text-rendering="geometricPrecision" shape-rendering="geometricPrecision" transform="matrix(1,0,0,1,133,-435)" stroke="url(#linearGradient19)">
          <path d="M373.6628 1082.1493 L503.6628 1082.1493 L503.6628 1107.1493 L373.6628 1107.1493 Z" stroke="none"/>
        </g>
        <g text-rendering="geometricPrecision" stroke-miterlimit="1.45" shape-rendering="geometricPrecision" transform="matrix(1,0,0,1,133,-435)" stroke-linecap="butt">
          <path fill="none" d="M373.6628 1082.1493 L503.6628 1082.1493 L503.6628 1107.1493 L373.6628 1107.1493 Z"/>
        </g>
        <g>
          <g text-rendering="geometricPrecision" stroke-miterlimit="1.45" shape-rendering="geometricPrecision" font-family="sans-serif" transform="matrix(1,0,0,1,133,-435)" stroke-linecap="butt">
            <text x="413.7283" xml:space="preserve" y="1098.8036" stroke="none">is_enum</text>
          </g>
        </g>
      </a>
    </g>
    <g id="y.node.21">
      <g fill="url(#linearGradient20)" text-rendering="geometricPrecision" shape-rendering="geometricPrecision" transform="matrix(1,0,0,1,133,-435)" stroke="url(#linearGradient20)">
        <path d="M57.0029 1074.6493 L97.0029 1094.6493 L57.0029 1114.6493 L17.0029 1094.6493 Z" stroke="none"/>
      </g>
      <g text-rendering="geometricPrecision" stroke-miterlimit="1.45" shape-rendering="geometricPrecision" transform="matrix(1,0,0,1,133,-435)" stroke-linecap="butt">
        <path fill="none" d="M57.0029 1074.6493 L97.0029 1094.6493 L57.0029 1114.6493 L17.0029 1094.6493 Z"/>
      </g>
      <g/>
    </g>
    <g id="y.node.22">
      <g fill="url(#linearGradient21)" text-rendering="geometricPrecision" shape-rendering="geometricPrecision" transform="matrix(1,0,0,1,133,-435)" stroke="url(#linearGradient21)">
        <path d="M573.6628 1074.6493 L613.6628 1094.6493 L573.6628 1114.6493 L533.6628 1094.6493 Z" stroke="none"/>
      </g>
      <g text-rendering="geometricPrecision" stroke-miterlimit="1.45" shape-rendering="geometricPrecision" transform="matrix(1,0,0,1,133,-435)" stroke-linecap="butt">
        <path fill="none" d="M573.6628 1074.6493 L613.6628 1094.6493 L573.6628 1114.6493 L533.6628 1094.6493 Z"/>
      </g>
      <g/>
    </g>
    <g id="y.node.23">
      <g fill="url(#linearGradient22)" text-rendering="geometricPrecision" shape-rendering="geometricPrecision" transform="matrix(1,0,0,1,133,-435)" stroke="url(#linearGradient22)">
        <path d="M358 828.1832 L398 848.1832 L358 868.1832 L318 848.1832 Z" stroke="none"/>
      </g>
      <g text-rendering="geometricPrecision" stroke-miterlimit="1.45" shape-rendering="geometricPrecision" transform="matrix(1,0,0,1,133,-435)" stroke-linecap="butt">
        <path fill="none" d="M358 828.1832 L398 848.1832 L358 868.1832 L318 848.1832 Z"/>
      </g>
      <g/>
    </g>
    <g id="y.node.24">
      <g fill="url(#linearGradient23)" text-rendering="geometricPrecision" shape-rendering="geometricPrecision" transform="matrix(1,0,0,1,133,-435)" stroke="url(#linearGradient23)">
        <path d="M730.0245 688.569 L770.0245 708.569 L730.0245 728.569 L690.0245 708.569 Z" stroke="none"/>
      </g>
      <g text-rendering="geometricPrecision" stroke-miterlimit="1.45" shape-rendering="geometricPrecision" transform="matrix(1,0,0,1,133,-435)" stroke-linecap="butt">
        <path fill="none" d="M730.0245 688.569 L770.0245 708.569 L730.0245 728.569 L690.0245 708.569 Z"/>
      </g>
      <g/>
    </g>
    <g id="y.edge.4">
      <g text-rendering="geometricPrecision" stroke-miterlimit="1.45" shape-rendering="geometricPrecision" transform="matrix(1,0,0,1,133,-435)" stroke-linecap="butt">
        <path fill="none" d="M102.0346 655.4608 L57.0029 655.4608 L57.0029 1011.6881"/>
        <path d="M57.0029 1019.6881 L62.0029 1007.6881 L57.0029 1010.6881 L52.0029 1007.6881 Z" stroke="none"/>
      </g>
    </g>
    <g id="y.edge.15">
      <g text-rendering="geometricPrecision" stroke-miterlimit="1.45" shape-rendering="geometricPrecision" transform="matrix(1,0,0,1,133,-435)" stroke-linecap="butt">
        <path fill="none" d="M142.0029 675.4542 L142.0029 965.8563"/>
        <path d="M142.0029 973.8563 L147.0029 961.8563 L142.0029 964.8563 L137.0029 961.8563 Z" stroke="none"/>
      </g>
    </g>
    <g id="y.edge.16">
      <g text-rendering="geometricPrecision" stroke-miterlimit="1.45" shape-rendering="geometricPrecision" transform="matrix(1,0,0,1,133,-435)" stroke-linecap="butt">
        <path fill="none" d="M57.0029 1044.631 L57.0029 1066.6713"/>
        <path d="M57.0029 1074.6713 L62.0029 1062.6713 L57.0029 1065.6713 L52.0029 1062.6713 Z" stroke="none"/>
      </g>
    </g>
    <g id="y.edge.17">
      <g text-rendering="geometricPrecision" stroke-miterlimit="1.45" shape-rendering="geometricPrecision" transform="matrix(1,0,0,1,133,-435)" stroke-linecap="butt">
        <path fill="none" d="M16.9755 1094.6493 L-22.6628 1094.6493 L-22.6628 1128.817"/>
        <path d="M-22.6628 1136.817 L-17.6628 1124.817 L-22.6628 1127.817 L-27.6628 1124.817 Z" stroke="none"/>
      </g>
    </g>
    <g id="y.edge.18">
      <g text-rendering="geometricPrecision" stroke-miterlimit="1.45" shape-rendering="geometricPrecision" transform="matrix(1,0,0,1,133,-435)" stroke-linecap="butt">
        <path fill="none" d="M96.9739 1094.6493 L137.3372 1094.6493 L136.9195 1128.8176"/>
        <path d="M136.8217 1136.817 L141.968 1124.879 L136.9317 1127.8177 L131.9688 1124.7568 Z" stroke="none"/>
      </g>
    </g>
    <g id="y.edge.19">
      <g text-rendering="geometricPrecision" stroke-miterlimit="1.45" shape-rendering="geometricPrecision" transform="matrix(1,0,0,1,133,-435)" stroke-linecap="butt">
        <path fill="none" d="M573.6628 675.4847 L573.6628 1066.6685"/>
        <path d="M573.6628 1074.6685 L578.6628 1062.6685 L573.6628 1065.6685 L568.6628 1062.6685 Z" stroke="none"/>
      </g>
    </g>
    <g id="y.edge.12">
      <g text-rendering="geometricPrecision" stroke-miterlimit="1.45" shape-rendering="geometricPrecision" transform="matrix(1,0,0,1,133,-435)" stroke-linecap="butt">
        <path fill="none" d="M533.6836 1094.6493 L511.6648 1094.6493"/>
        <path d="M503.6648 1094.6493 L515.6648 1099.6493 L512.6648 1094.6493 L515.6648 1089.6493 Z" stroke="none"/>
      </g>
    </g>
    <g id="y.edge.8">
      <g text-rendering="geometricPrecision" stroke-miterlimit="1.45" shape-rendering="geometricPrecision" transform="matrix(1,0,0,1,133,-435)" stroke-linecap="butt">
        <path fill="none" d="M573.6628 1114.6516 L573.6628 1128.8412"/>
        <path d="M573.6628 1136.8412 L578.6628 1124.8412 L573.6628 1127.8412 L568.6628 1124.8412 Z" stroke="none"/>
      </g>
    </g>
    <g id="y.edge.9">
      <g text-rendering="geometricPrecision" stroke-miterlimit="1.45" shape-rendering="geometricPrecision" transform="matrix(1,0,0,1,133,-435)" stroke-linecap="butt">
        <path fill="none" d="M613.6421 1094.6493 L635.6608 1094.6493"/>
        <path d="M643.6608 1094.6493 L631.6608 1089.6493 L634.6608 1094.6493 L631.6608 1099.6493 Z" stroke="none"/>
      </g>
    </g>
    <g id="y.edge.20">
      <g text-rendering="geometricPrecision" stroke-miterlimit="1.45" shape-rendering="geometricPrecision" transform="matrix(1,0,0,1,133,-435)" stroke-linecap="butt">
        <path fill="none" d="M533.6736 655.4608 L358 655.4608 L358 820.1864"/>
        <path d="M358 828.1864 L363 816.1864 L358 819.1864 L353 816.1864 Z" stroke="none"/>
      </g>
    </g>
    <g id="y.edge.10">
      <g text-rendering="geometricPrecision" stroke-miterlimit="1.45" shape-rendering="geometricPrecision" transform="matrix(1,0,0,1,133,-435)" stroke-linecap="butt">
        <path fill="none" d="M318.0296 848.1832 L301.0165 848.1832"/>
        <path d="M293.0165 848.1832 L305.0165 853.1832 L302.0165 848.1832 L305.0165 843.1832 Z" stroke="none"/>
      </g>
    </g>
    <g id="y.edge.13">
      <g text-rendering="geometricPrecision" stroke-miterlimit="1.45" shape-rendering="geometricPrecision" transform="matrix(1,0,0,1,133,-435)" stroke-linecap="butt">
        <path fill="none" d="M358 868.1722 L358 890.1873"/>
        <path d="M358 898.1873 L363 886.1873 L358 889.1873 L353 886.1873 Z" stroke="none"/>
      </g>
    </g>
    <g id="y.edge.14">
      <g text-rendering="geometricPrecision" stroke-miterlimit="1.45" shape-rendering="geometricPrecision" transform="matrix(1,0,0,1,133,-435)" stroke-linecap="butt">
        <path fill="none" d="M397.9708 848.1832 L415.6994 848.1832"/>
        <path d="M423.6994 848.1832 L411.6994 843.1832 L414.6994 848.1832 L411.6994 853.1832 Z" stroke="none"/>
      </g>
    </g>
    <g id="y.edge.21">
      <g text-rendering="geometricPrecision" stroke-miterlimit="1.45" shape-rendering="geometricPrecision" transform="matrix(1,0,0,1,133,-435)" stroke-linecap="butt">
        <path fill="none" d="M613.6313 655.4608 L730.0245 655.4608 L730.0245 680.5756"/>
        <path d="M730.0245 688.5756 L735.0245 676.5756 L730.0245 679.5756 L725.0245 676.5756 Z" stroke="none"/>
      </g>
    </g>
    <g id="y.edge.7">
      <g text-rendering="geometricPrecision" stroke-miterlimit="1.45" shape-rendering="geometricPrecision" transform="matrix(1,0,0,1,133,-435)" stroke-linecap="butt">
        <path fill="none" d="M769.9913 708.569 L801.3862 708.569 L801.3862 742.2145"/>
        <path d="M801.3862 750.2145 L806.3862 738.2145 L801.3862 741.2145 L796.3862 738.2145 Z" stroke="none"/>
      </g>
    </g>
    <g id="y.edge.11">
      <g text-rendering="geometricPrecision" stroke-miterlimit="1.45" shape-rendering="geometricPrecision" transform="matrix(1,0,0,1,133,-435)" stroke-linecap="butt">
        <path fill="none" d="M690.0578 708.569 L658.6628 708.569 L658.6628 742.2145"/>
        <path d="M658.6628 750.2145 L663.6628 738.2145 L658.6628 741.2145 L653.6628 738.2145 Z" stroke="none"/>
      </g>
    </g>
  </g>
</svg>
